<svg width="33" height="32" viewBox="0 0 33 32" fill="none" xmlns="http://www.w3.org/2000/svg">
<path fill-rule="evenodd" clip-rule="evenodd" d="M4.32076 0.201416C1.93447 0.201416 0 2.13589 0 4.52218V27.5663C0 29.9526 1.93447 31.887 4.32076 31.887H28.085C30.4713 31.887 32.4057 29.9526 32.4057 27.5663V4.52218C32.4057 2.13589 30.4713 0.201416 28.085 0.201416H4.32076ZM4.73056 21.1C4.86256 21.2647 5.06866 21.3469 5.34884 21.3467L7.7222 21.3446C8.00239 21.3443 8.22483 21.2699 8.38951 21.1215C8.57067 20.973 8.69416 20.8328 8.75997 20.7008L12.5114 13.6268L13.7292 20.6964C13.7623 20.8282 13.8283 20.9682 13.9273 21.1165C14.0429 21.2647 14.2407 21.3387 14.5209 21.3385L16.919 21.3363C17.1992 21.3361 17.4381 21.2534 17.6357 21.0884C17.8498 20.9234 17.9897 20.7338 18.0555 20.5194L23.9252 4.64232C23.991 4.49393 23.9908 4.35383 23.9248 4.22204C23.8588 4.09024 23.7351 4.02443 23.5538 4.02459L20.3893 4.02743C19.9443 4.02783 19.656 4.20939 19.5245 4.5721L15.8742 14.2172L15.2263 8.53157C15.2097 8.39973 15.1602 8.25968 15.0776 8.11142C15.0116 7.94666 14.8384 7.86441 14.5582 7.86466L12.8029 7.86623C12.5392 7.86647 12.3333 7.94906 12.1851 8.11401C12.0369 8.26248 11.9217 8.40268 11.8394 8.53461L8.9024 14.1245L9.28944 4.63074C9.30574 4.43294 9.25616 4.28465 9.1407 4.18587C9.04173 4.08706 8.87686 4.03777 8.64612 4.03797L5.6547 4.04066C5.48988 4.04081 5.34984 4.09862 5.23457 4.2141C5.11931 4.32957 5.0535 4.46148 5.03715 4.60983L4.53227 20.5316C4.53246 20.7458 4.59856 20.9353 4.73056 21.1Z" fill="url(#paint0_linear_59_378)"/>
<defs>
<linearGradient id="paint0_linear_59_378" x1="16.2029" y1="0.921544" x2="16.2029" y2="31.887" gradientUnits="userSpaceOnUse">
<stop stop-color="#4457FF"/>
<stop offset="1" stop-color="#3C4DE1"/>
</linearGradient>
</defs>
</svg>
